<svg xmlns="http://www.w3.org/2000/svg" width="130" height="130" viewBox="0 0 130 130" fill="none">
  <mask id="path-1-inside-1_13014_201969" fill="white">
    <path fill-rule="evenodd" clip-rule="evenodd" d="M12.0559 11.966H63.1745H64.9999H118.857V67.6484H68.6512V117.854H12.0559V67.6484V65.8231V11.966Z"/>
  </mask>
  <path d="M12.0559 11.966V10.966H11.0559V11.966H12.0559ZM118.857 11.966H119.857V10.966H118.857V11.966ZM118.857 67.6484V68.6484H119.857V67.6484H118.857ZM68.6512 67.6484V66.6484H67.6512V67.6484H68.6512ZM68.6512 117.854V118.854H69.6512V117.854H68.6512ZM12.0559 117.854H11.0559V118.854H12.0559V117.854ZM63.1745 10.966H12.0559V12.966H63.1745V10.966ZM64.9999 10.966H63.1745V12.966H64.9999V10.966ZM118.857 10.966H64.9999V12.966H118.857V10.966ZM119.857 67.6484V11.966H117.857V67.6484H119.857ZM68.6512 68.6484H118.857V66.6484H68.6512V68.6484ZM67.6512 67.6484V117.854H69.6512V67.6484H67.6512ZM68.6512 116.854H12.0559V118.854H68.6512V116.854ZM13.0559 117.854V67.6484H11.0559V117.854H13.0559ZM13.0559 67.6484V65.8231H11.0559V67.6484H13.0559ZM11.0559 11.966V65.8231H13.0559V11.966H11.0559Z" fill="black" mask="url(#path-1-inside-1_13014_201969)"/>
  <rect x="12.804" y="12.6964" width="50.1183" height="50.1183" fill="#B9542B" stroke="black"/>
  <rect x="12.804" y="62.6652" width="50.1183" height="50.1183" fill="#CA9824" stroke="black"/>
  <rect x="62.76" y="12.6964" width="36.177" height="36.177" fill="#CA9824" stroke="black"/>
  <rect x="62.76" y="48.9688" width="36.4259" height="13.6052" fill="#262624" stroke="black"/>
  <rect x="98.7748" y="12.6964" width="14.1031" height="50.1183" fill="#428737" stroke="black"/>
  <rect x="12.9678" y="63.0647" width="22.8207" height="21.9079" fill="#262624"/>
  <rect x="77.6123" y="27.5541" width="20.912" height="20.912" fill="#262624"/>
  <rect x="11.6414" y="60.3365" width="21.0738" height="21.0738" fill="#DEA420" stroke="black"/>
  <rect x="76.9498" y="26.8934" width="19.912" height="19.912" fill="#428737" stroke="black"/>
  <path d="M18.0992 75.4496L16.9106 75.9069L13.4647 70.7681L16.9106 65.6401L18.0992 66.0973L14.9535 70.7681L18.0992 75.4496Z" fill="black"/>
  <path d="M23.1051 66.616L20.291 76.0961H18.9394L21.7535 66.616H23.1051Z" fill="black"/>
  <path d="M23.9333 75.4496L27.079 70.7681L23.9333 66.0973L25.1219 65.6401L28.5678 70.7681L25.1219 75.9069L23.9333 75.4496Z" fill="black"/>
  <path d="M83.9651 41.8379L82.8679 42.2444L79.6871 37.6765L82.8679 33.1183L83.9651 33.5248L81.0614 37.6765L83.9651 41.8379Z" fill="black"/>
  <path d="M88.5859 33.9858L85.9883 42.4125H84.7407L87.3383 33.9858H88.5859Z" fill="black"/>
  <path d="M89.3504 41.8379L92.2541 37.6765L89.3504 33.5248L90.4476 33.1183L93.6284 37.6765L90.4476 42.2444L89.3504 41.8379Z" fill="black"/>
</svg>