<svg xmlns="http://www.w3.org/2000/svg" width="151" height="151" viewBox="0 0 151 151" fill="none">
  <path d="M67.895 115.404H51.6599C47.3981 115.404 43.3106 113.71 40.297 110.694C37.2834 107.679 35.5905 103.589 35.5905 99.3237C35.5905 99.0475 35.5905 98.771 35.5905 98.4947V83.1051C35.5905 82.812 35.474 82.531 35.2669 82.3238C35.0598 82.1165 34.7788 82 34.4859 82C34.193 82 33.9122 82.1165 33.7051 82.3238C33.4979 82.531 33.3815 82.812 33.3815 83.1051V99.0935C33.3815 99.1672 33.3815 99.2409 33.3815 99.3145C33.3815 103.578 31.6897 107.666 28.6781 110.682C25.6665 113.697 21.5815 115.392 17.3212 115.395H1.10439C0.811474 115.395 0.530685 115.511 0.323564 115.719C0.116443 115.926 6.82625e-10 116.207 6.82206e-10 116.5C-5.10516e-06 116.645 0.0286465 116.788 0.0842615 116.922C0.139877 117.055 0.221335 117.176 0.324014 117.278C0.426692 117.38 0.548687 117.461 0.682631 117.515C0.816574 117.57 0.959787 117.597 1.10439 117.596H17.3212C21.5815 117.598 25.6665 119.294 28.6781 122.309C31.6897 125.325 33.3815 129.413 33.3815 133.676C33.3815 133.75 33.3815 133.824 33.3815 133.907V149.895C33.3815 150.188 33.4979 150.469 33.7051 150.676C33.9122 150.884 34.193 151 34.4859 151C34.7788 151 35.0598 150.884 35.2669 150.676C35.474 150.469 35.5905 150.188 35.5905 149.895V134.542C35.5905 134.266 35.5905 133.989 35.5905 133.713C35.5929 129.45 37.287 125.362 40.3004 122.349C43.3137 119.335 47.3996 117.642 51.6599 117.642H51.8255H51.8716H67.895C68.0396 117.643 68.183 117.616 68.317 117.561C68.4509 117.507 68.5727 117.426 68.6754 117.324C68.7781 117.222 68.8595 117.101 68.9151 116.968C68.9707 116.834 68.9994 116.691 68.9994 116.546C69.0043 116.398 68.9794 116.25 68.9261 116.112C68.8729 115.974 68.7924 115.847 68.6893 115.741C68.5863 115.634 68.4629 115.549 68.3264 115.492C68.19 115.434 68.0432 115.404 67.895 115.404Z" fill="white" fill-opacity="0.2"/>
  <path d="M149.687 39.6976H130.393C125.328 39.6976 120.471 37.6841 116.889 34.1003C113.308 30.5165 111.296 25.6559 111.296 20.5876C111.296 20.2593 111.296 19.9308 111.296 19.6024V1.31335C111.296 0.965013 111.158 0.631097 110.911 0.384786C110.665 0.138475 110.331 0 109.983 0C109.635 0 109.301 0.138475 109.055 0.384786C108.809 0.631097 108.671 0.965013 108.671 1.31335V20.314C108.671 20.4016 108.671 20.4891 108.671 20.5767C108.671 25.6431 106.66 30.5021 103.081 34.0856C99.5022 37.6691 94.6476 39.6838 89.5847 39.6867H70.3125C69.9644 39.6867 69.6307 39.8251 69.3845 40.0714C69.1384 40.3177 69 40.6517 69 41C69 41.172 69.034 41.3423 69.1001 41.501C69.1662 41.6598 69.263 41.8037 69.3851 41.9248C69.5071 42.0459 69.6521 42.1417 69.8112 42.2065C69.9704 42.2713 70.1406 42.3038 70.3125 42.3024H89.5847C94.6476 42.3053 99.5022 44.3202 103.081 47.9037C106.66 51.4872 108.671 56.3462 108.671 61.4126C108.671 61.5002 108.671 61.5877 108.671 61.6862V80.6867C108.671 81.035 108.809 81.3692 109.055 81.6155C109.301 81.8618 109.635 82 109.983 82C110.331 82 110.665 81.8618 110.911 81.6155C111.158 81.3692 111.296 81.035 111.296 80.6867V62.4414C111.296 62.113 111.296 61.7845 111.296 61.4562C111.299 56.3898 113.312 51.5319 116.893 47.9505C120.474 44.369 125.33 42.3572 130.393 42.3572H130.59H130.645H149.687C149.859 42.3586 150.029 42.326 150.188 42.2612C150.347 42.1964 150.492 42.1007 150.614 41.9796C150.736 41.8585 150.833 41.7145 150.899 41.5558C150.965 41.3971 150.999 41.2267 150.999 41.0548C151.005 40.8787 150.976 40.7032 150.912 40.5388C150.849 40.3744 150.753 40.2243 150.631 40.0976C150.508 39.971 150.362 39.8703 150.2 39.8016C150.037 39.7328 149.863 39.6975 149.687 39.6976Z" fill="white" fill-opacity="0.2"/>
</svg>